<svg width="202" height="77" viewBox="0 0 202 77" fill="none" xmlns="http://www.w3.org/2000/svg">
<path d="M56.6565 14.8438C49.9065 17.375 45.0315 22.7188 44.0002 28.5313C43.719 30.4063 43.0627 32.75 42.594 33.7813C42.0315 34.9063 41.7502 38.2813 41.9377 41.2813C42.219 46.625 42.3127 46.9063 45.0315 47.4688C48.6877 48.3125 87.3127 48.3125 90.969 47.4688C93.6877 46.9063 93.7815 46.625 94.0627 41.2813C94.2502 38.2813 93.969 34.9063 93.4065 33.7813C92.9377 32.75 92.2815 30.4063 92.0002 28.625C91.1565 24.0313 87.4065 19.0625 82.719 16.4375C79.4377 14.4688 77.2815 14.0938 69.4065 13.9063C63.219 13.7188 58.9065 14 56.6565 14.8438ZM84.6877 35.75C87.3127 36.0313 89.5627 36.5938 89.5627 36.9688C89.5627 37.9063 80.2815 39.125 75.969 38.9375C74.469 38.75 70.8127 38.75 68.0002 38.75C65.1877 38.75 61.6252 38.75 60.0315 38.9375C55.719 39.125 46.4377 37.9063 46.4377 36.9688C46.4377 36.2188 51.969 35.4688 60.969 34.9063C66.0315 34.5313 76.6252 34.9063 84.6877 35.75Z" fill="white"/>
<path d="M44.1873 50.9375C43.3435 52.25 44.9373 56 47.1873 57.9688C50.4685 60.875 57.406 62.375 67.9998 62.375C83.0935 62.375 90.9685 59.2812 91.6248 53C91.906 51.0312 91.531 50.6562 89.5623 50.8438C83.5623 51.4062 49.4373 51.2188 47.281 50.6562C45.8748 50.2812 44.4685 50.4688 44.1873 50.9375Z" fill="white"/>
<path d="M114.656 14.8438C107.906 17.375 103.031 22.7188 102 28.5313C101.719 30.4063 101.063 32.75 100.594 33.7813C100.031 34.9063 99.7502 38.2813 99.9377 41.2813C100.219 46.625 100.313 46.9063 103.031 47.4688C106.688 48.3125 145.313 48.3125 148.969 47.4688C151.688 46.9063 151.781 46.625 152.063 41.2813C152.25 38.2813 151.969 34.9063 151.406 33.7813C150.938 32.75 150.281 30.4063 150 28.625C149.156 24.0313 145.406 19.0625 140.719 16.4375C137.438 14.4688 135.281 14.0938 127.406 13.9063C121.219 13.7188 116.906 14 114.656 14.8438ZM142.688 35.75C145.313 36.0313 147.563 36.5938 147.563 36.9688C147.563 37.9063 138.281 39.125 133.969 38.9375C132.469 38.75 128.813 38.75 126 38.75C123.188 38.75 119.625 38.75 118.031 38.9375C113.719 39.125 104.438 37.9063 104.438 36.9688C104.438 36.2188 109.969 35.4688 118.969 34.9063C124.031 34.5313 134.625 34.9063 142.688 35.75Z" fill="white"/>
<path d="M102.187 50.9375C101.344 52.25 102.937 56 105.187 57.9688C108.469 60.875 115.406 62.375 126 62.375C141.094 62.375 148.969 59.2812 149.625 53C149.906 51.0312 149.531 50.6562 147.562 50.8438C141.562 51.4062 107.437 51.2188 105.281 50.6562C103.875 50.2812 102.469 50.4688 102.187 50.9375Z" fill="white"/>
<path d="M10.048 60.576C8.17067 60.576 6.69867 60.064 5.632 59.04C4.608 57.9733 4.096 56.4587 4.096 54.496V20.96C4.096 18.9973 4.608 17.504 5.632 16.48C6.69867 15.4133 8.23467 14.88 10.24 14.88H31.552C33.088 14.88 34.24 15.264 35.008 16.032C35.776 16.8 36.16 17.9093 36.16 19.36C36.16 20.8533 35.776 22.0053 35.008 22.816C34.24 23.584 33.088 23.968 31.552 23.968H15.872V33.056H30.144C31.6373 33.056 32.768 33.44 33.536 34.208C34.3467 34.976 34.752 36.0853 34.752 37.536C34.752 39.0293 34.3467 40.16 33.536 40.928C32.768 41.696 31.6373 42.08 30.144 42.08H15.872V54.496C15.872 58.5493 13.9307 60.576 10.048 60.576Z" fill="#06CF10"/>
<path d="M161.24 60C159.235 60 157.699 59.488 156.632 58.464C155.608 57.3973 155.096 55.8827 155.096 53.92V20.96C155.096 18.9973 155.608 17.504 156.632 16.48C157.699 15.4133 159.235 14.88 161.24 14.88H173.784C181.635 14.88 187.693 16.8427 191.96 20.768C196.269 24.6933 198.424 30.24 198.424 37.408C198.424 40.992 197.869 44.192 196.76 47.008C195.651 49.7813 194.051 52.1493 191.96 54.112C189.869 56.032 187.288 57.504 184.216 58.528C181.187 59.5093 177.709 60 173.784 60H161.24ZM166.872 50.464H173.016C175.277 50.464 177.219 50.1867 178.84 49.632C180.504 49.0773 181.869 48.2667 182.936 47.2C184.045 46.1333 184.856 44.7893 185.368 43.168C185.923 41.5467 186.2 39.6267 186.2 37.408C186.2 32.9707 185.112 29.7067 182.936 27.616C180.76 25.4827 177.453 24.416 173.016 24.416H166.872V50.464Z" fill="#06CF10"/>
</svg>
