<svg width="175" height="68" viewBox="0 0 175 68" fill="none" xmlns="http://www.w3.org/2000/svg">
<path d="M49.5472 9.70312C43.9222 11.8125 39.8597 16.2656 39.0004 21.1094C38.766 22.6719 38.2191 24.625 37.8285 25.4844C37.3597 26.4219 37.1254 29.2344 37.2816 31.7344C37.516 36.1875 37.5941 36.4219 39.8597 36.8906C42.9066 37.5938 75.0941 37.5938 78.141 36.8906C80.4066 36.4219 80.4847 36.1875 80.7191 31.7344C80.8754 29.2344 80.641 26.4219 80.1722 25.4844C79.7816 24.625 79.2347 22.6719 79.0004 21.1875C78.2972 17.3594 75.1722 13.2188 71.266 11.0312C68.5316 9.39062 66.7347 9.07812 60.1722 8.92188C55.016 8.76562 51.4222 9 49.5472 9.70312ZM72.9066 27.125C75.0941 27.3594 76.9691 27.8281 76.9691 28.1406C76.9691 28.9219 69.2347 29.9375 65.641 29.7812C64.391 29.625 61.3441 29.625 59.0004 29.625C56.6566 29.625 53.6879 29.625 52.3597 29.7812C48.766 29.9375 41.0316 28.9219 41.0316 28.1406C41.0316 27.5156 45.641 26.8906 53.141 26.4219C57.3597 26.1094 66.1879 26.4219 72.9066 27.125Z" fill="white"/>
<path d="M39.1569 39.7812C38.4538 40.875 39.7819 44 41.6569 45.6406C44.3913 48.0625 50.1725 49.3125 59.0006 49.3125C71.5788 49.3125 78.1413 46.7344 78.6881 41.5C78.9225 39.8594 78.61 39.5469 76.9694 39.7031C71.9694 40.1719 43.5319 40.0156 41.735 39.5469C40.5631 39.2344 39.3913 39.3906 39.1569 39.7812Z" fill="white"/>
<path d="M94.5463 9.70312C88.9213 11.8125 84.8588 16.2656 83.9994 21.1094C83.765 22.6719 83.2181 24.625 82.8275 25.4844C82.3588 26.4219 82.1244 29.2344 82.2806 31.7344C82.515 36.1875 82.5931 36.4219 84.8588 36.8906C87.9056 37.5938 120.093 37.5938 123.14 36.8906C125.406 36.4219 125.484 36.1875 125.718 31.7344C125.874 29.2344 125.64 26.4219 125.171 25.4844C124.781 24.625 124.234 22.6719 123.999 21.1875C123.296 17.3594 120.171 13.2188 116.265 11.0312C113.531 9.39062 111.734 9.07812 105.171 8.92188C100.015 8.76562 96.4213 9 94.5463 9.70312ZM117.906 27.125C120.093 27.3594 121.968 27.8281 121.968 28.1406C121.968 28.9219 114.234 29.9375 110.64 29.7812C109.39 29.625 106.343 29.625 103.999 29.625C101.656 29.625 98.6869 29.625 97.3588 29.7812C93.765 29.9375 86.0306 28.9219 86.0306 28.1406C86.0306 27.5156 90.64 26.8906 98.14 26.4219C102.359 26.1094 111.187 26.4219 117.906 27.125Z" fill="white"/>
<path d="M84.1559 39.7812C83.4528 40.875 84.7809 44 86.6559 45.6406C89.3903 48.0625 95.1715 49.3125 104 49.3125C116.578 49.3125 123.14 46.7344 123.687 41.5C123.922 39.8594 123.609 39.5469 121.968 39.7031C116.968 40.1719 88.5309 40.0156 86.734 39.5469C85.5622 39.2344 84.3903 39.3906 84.1559 39.7812Z" fill="white"/>
<path d="M135.24 54C133.235 54 131.699 53.488 130.632 52.464C129.608 51.3973 129.096 49.8827 129.096 47.92V14.96C129.096 12.9973 129.608 11.504 130.632 10.48C131.699 9.41333 133.235 8.88 135.24 8.88H147.784C155.635 8.88 161.693 10.8427 165.96 14.768C170.269 18.6933 172.424 24.24 172.424 31.408C172.424 34.992 171.869 38.192 170.76 41.008C169.651 43.7813 168.051 46.1493 165.96 48.112C163.869 50.032 161.288 51.504 158.216 52.528C155.187 53.5093 151.709 54 147.784 54H135.24ZM140.872 44.464H147.016C149.277 44.464 151.219 44.1867 152.84 43.632C154.504 43.0773 155.869 42.2667 156.936 41.2C158.045 40.1333 158.856 38.7893 159.368 37.168C159.923 35.5467 160.2 33.6267 160.2 31.408C160.2 26.9707 159.112 23.7067 156.936 21.616C154.76 19.4827 151.453 18.416 147.016 18.416H140.872V44.464Z" fill="#06CF10"/>
<path d="M10.048 54.576C8.17067 54.576 6.69867 54.064 5.632 53.04C4.608 51.9733 4.096 50.4587 4.096 48.496V14.96C4.096 12.9973 4.608 11.504 5.632 10.48C6.69867 9.41333 8.23467 8.88 10.24 8.88H31.552C33.088 8.88 34.24 9.264 35.008 10.032C35.776 10.8 36.16 11.9093 36.16 13.36C36.16 14.8533 35.776 16.0053 35.008 16.816C34.24 17.584 33.088 17.968 31.552 17.968H15.872V27.056H30.144C31.6373 27.056 32.768 27.44 33.536 28.208C34.3467 28.976 34.752 30.0853 34.752 31.536C34.752 33.0293 34.3467 34.16 33.536 34.928C32.768 35.696 31.6373 36.08 30.144 36.08H15.872V48.496C15.872 52.5493 13.9307 54.576 10.048 54.576Z" fill="#06CF10"/>
</svg>
