<svg width="198" height="77" viewBox="0 0 198 77" fill="none" xmlns="http://www.w3.org/2000/svg">
<path d="M10.048 60.576C8.17067 60.576 6.69867 60.064 5.632 59.04C4.608 57.9733 4.096 56.4587 4.096 54.496V20.96C4.096 18.9973 4.608 17.504 5.632 16.48C6.69867 15.4133 8.23467 14.88 10.24 14.88H31.552C33.088 14.88 34.24 15.264 35.008 16.032C35.776 16.8 36.16 17.9093 36.16 19.36C36.16 20.8533 35.776 22.0053 35.008 22.816C34.24 23.584 33.088 23.968 31.552 23.968H15.872V33.056H30.144C31.6373 33.056 32.768 33.44 33.536 34.208C34.3467 34.976 34.752 36.0853 34.752 37.536C34.752 39.0293 34.3467 40.16 33.536 40.928C32.768 41.696 31.6373 42.08 30.144 42.08H15.872V54.496C15.872 58.5493 13.9307 60.576 10.048 60.576Z" fill="#06CF10"/>
<path d="M157.24 60C155.235 60 153.699 59.488 152.632 58.464C151.608 57.3973 151.096 55.8827 151.096 53.92V20.96C151.096 18.9973 151.608 17.504 152.632 16.48C153.699 15.4133 155.235 14.88 157.24 14.88H169.784C177.635 14.88 183.693 16.8427 187.96 20.768C192.269 24.6933 194.424 30.24 194.424 37.408C194.424 40.992 193.869 44.192 192.76 47.008C191.651 49.7813 190.051 52.1493 187.96 54.112C185.869 56.032 183.288 57.504 180.216 58.528C177.187 59.5093 173.709 60 169.784 60H157.24ZM162.872 50.464H169.016C171.277 50.464 173.219 50.1867 174.84 49.632C176.504 49.0773 177.869 48.2667 178.936 47.2C180.045 46.1333 180.856 44.7893 181.368 43.168C181.923 41.5467 182.2 39.6267 182.2 37.408C182.2 32.9707 181.112 29.7067 178.936 27.616C176.76 25.4827 173.453 24.416 169.016 24.416H162.872V50.464Z" fill="#06CF10"/>
<path d="M54.7766 14.9932C48.0266 17.5244 43.1516 22.8682 42.1203 28.6807C41.8391 30.5557 41.1828 32.8994 40.7141 33.9307C40.1516 35.0557 39.8703 38.4307 40.0578 41.4307C40.3391 46.7744 40.4328 47.0557 43.1516 47.6182C46.8078 48.4619 85.4328 48.4619 89.0891 47.6182C91.8078 47.0557 91.9016 46.7744 92.1828 41.4307C92.3703 38.4307 92.0891 35.0557 91.5266 33.9307C91.0578 32.8994 90.4016 30.5557 90.1203 28.7744C89.2766 24.1807 85.5266 19.2119 80.8391 16.5869C77.5578 14.6182 75.4016 14.2432 67.5266 14.0557C61.3391 13.8682 57.0266 14.1494 54.7766 14.9932ZM82.8078 35.8994C85.4328 36.1807 87.6828 36.7432 87.6828 37.1182C87.6828 38.0557 78.4016 39.2744 74.0891 39.0869C72.5891 38.8994 68.9328 38.8994 66.1203 38.8994C63.3078 38.8994 59.7453 38.8994 58.1516 39.0869C53.8391 39.2744 44.5578 38.0557 44.5578 37.1182C44.5578 36.3682 50.0891 35.6182 59.0891 35.0557C64.1516 34.6807 74.7453 35.0557 82.8078 35.8994Z" fill="black"/>
<path d="M42.3074 51.0869C41.4637 52.3994 43.0574 56.1494 45.3074 58.1182C48.5887 61.0244 55.5262 62.5244 66.1199 62.5244C81.2137 62.5244 89.0887 59.4307 89.7449 53.1494C90.0262 51.1807 89.6512 50.8057 87.6824 50.9932C81.6824 51.5557 47.5574 51.3682 45.4012 50.8057C43.9949 50.4307 42.5887 50.6182 42.3074 51.0869Z" fill="black"/>
<path d="M108.777 14.9932C102.027 17.5244 97.1516 22.8682 96.1203 28.6807C95.8391 30.5557 95.1828 32.8994 94.7141 33.9307C94.1516 35.0557 93.8703 38.4307 94.0578 41.4307C94.3391 46.7744 94.4328 47.0557 97.1516 47.6182C100.808 48.4619 139.433 48.4619 143.089 47.6182C145.808 47.0557 145.902 46.7744 146.183 41.4307C146.37 38.4307 146.089 35.0557 145.527 33.9307C145.058 32.8994 144.402 30.5557 144.12 28.7744C143.277 24.1807 139.527 19.2119 134.839 16.5869C131.558 14.6182 129.402 14.2432 121.527 14.0557C115.339 13.8682 111.027 14.1494 108.777 14.9932ZM136.808 35.8994C139.433 36.1807 141.683 36.7432 141.683 37.1182C141.683 38.0557 132.402 39.2744 128.089 39.0869C126.589 38.8994 122.933 38.8994 120.12 38.8994C117.308 38.8994 113.745 38.8994 112.152 39.0869C107.839 39.2744 98.5578 38.0557 98.5578 37.1182C98.5578 36.3682 104.089 35.6182 113.089 35.0557C118.152 34.6807 128.745 35.0557 136.808 35.8994Z" fill="black"/>
<path d="M96.3074 51.0869C95.4637 52.3994 97.0574 56.1494 99.3074 58.1182C102.589 61.0244 109.526 62.5244 120.12 62.5244C135.214 62.5244 143.089 59.4307 143.745 53.1494C144.026 51.1807 143.651 50.8057 141.682 50.9932C135.682 51.5557 101.557 51.3682 99.4012 50.8057C97.9949 50.4307 96.5887 50.6182 96.3074 51.0869Z" fill="black"/>
</svg>
